<svg width="60" height="54" viewBox="0 0 60 54" fill="none" xmlns="http://www.w3.org/2000/svg">
<g clip-path="url(#clip0)">
<mask id="mask0" mask-type="alpha" maskUnits="userSpaceOnUse" x="0" y="1" width="63" height="54">
<path d="M31.1294 1L0 54.8412H16.8353L23.6647 43.0882L30.6529 55H62.2588L31.1294 1Z" fill="white"/>
</mask>
<g mask="url(#mask0)">
<path fill-rule="evenodd" clip-rule="evenodd" d="M40.0471 40.5082H52.1363L46.0766 30.0126L40.017 40.5082H40.0471ZM38.4403 39.6886L32.3806 29.1928H44.5001L38.4403 39.6886ZM25.2079 42.0965H37.0501L37.05 42.0966H37.0796L31.0202 52.5918L24.9608 42.0966H25.2079L25.2079 42.0965ZM45.9679 52.4039L40.017 42.0966H51.9188L45.9679 52.4039ZM38.5486 43.1038L44.5001 53.4121H32.5971L38.5486 43.1038ZM59.5552 53.4121L53.4962 42.9176L47.4372 53.4121H59.5552ZM16.1806 30.0139L22.2395 40.5082H22.2099H10.1217L16.1806 30.0139ZM10.3382 42.0966L16.3976 52.5918L22.457 42.0966H10.3382ZM14.8207 53.4121L8.76126 42.9168L2.70178 53.4121H14.8207ZM23.8169 39.6872L29.8759 29.1928H17.7579L23.8169 39.6872ZM31.1285 4.0177L37.2961 14.7003H24.9608L31.1285 4.0177ZM38.6565 17.1089L32.5971 27.6042H44.716L38.6565 17.1089ZM29.6599 27.6042L23.6002 17.1084L17.5404 27.6042H29.6599ZM31.1282 26.5969L37.0796 16.2887H25.1768L31.1282 26.5969Z" fill="#181A55"/>
</g>
</g>
<defs>
<clipPath id="clip0">
<rect width="59.0605" height="53.5019" fill="white" transform="translate(0 0.249023)"/>
</clipPath>
</defs>
</svg>
