<svg width="63" height="55" fill="none" xmlns="http://www.w3.org/2000/svg"><mask id="a" maskUnits="userSpaceOnUse" x="0" y="0" width="63" height="55"><path d="M31.13.132L0 53.973h16.835l6.83-11.753 6.988 11.912h31.606l-31.13-54z" fill="#fff"/></mask><g mask="url(#a)"><path fill-rule="evenodd" clip-rule="evenodd" d="M40.047 39.64h12.089l-6.06-10.496-6.06 10.496h.03zm-1.607-.82l-6.06-10.495H44.5L38.44 38.82zm-13.233 2.408H37.08l-6.06 10.495-6.059-10.495h.247zm20.76 10.308l-5.95-10.308h11.901l-5.95 10.308zm-7.42-9.3L44.5 52.544H32.596l5.952-10.308zm21.008 10.308l-6.06-10.495-6.058 10.495h12.118zM16.18 29.146l6.059 10.494H10.12l6.059-10.494zm-5.842 12.082l6.059 10.495 6.06-10.495h-12.12zm4.482 11.316L8.76 42.049 2.702 52.543h12.12zm8.996-13.725l6.06-10.495H17.756l6.06 10.495zm7.312-35.67l6.167 10.683H24.96L31.128 3.15zm7.528 13.092l-6.06 10.495h12.12l-6.06-10.495zm-8.997 10.495L23.6 16.24l-6.06 10.496h12.12zm1.469-1.007l5.951-10.309H25.176l5.952 10.309z" fill="#fff"/></g></svg>